<?xml version="1.0" standalone="no"?>
<!DOCTYPE svg PUBLIC "-//W3C//DTD SVG 20010904//EN"
 "http://www.w3.org/TR/2001/REC-SVG-20010904/DTD/svg10.dtd">
<svg version="1.0" xmlns="http://www.w3.org/2000/svg"
 width="500.000000pt" height="500.000000pt" viewBox="0 0 500.000000 500.000000"
 preserveAspectRatio="xMidYMid meet">
<metadata>
Created by potrace 1.14, written by Peter Selinger 2001-2017
</metadata>
<g transform="translate(0.000000,500.000000) scale(0.100000,-0.100000)"
fill="#000000" stroke="none">
<path d="M1099 4816 c-2 -2 -24 -6 -49 -10 -71 -9 -171 -37 -230 -64 -19 -9
-40 -17 -46 -18 -11 -2 -159 -90 -182 -108 -58 -46 -163 -152 -203 -206 -76
-100 -152 -257 -175 -357 -33 -148 -33 -160 -31 -1593 3 -1409 3 -1415 24
-1490 75 -264 217 -471 418 -607 61 -41 162 -95 168 -91 2 2 10 -2 18 -8 15
-12 82 -35 177 -62 51 -14 217 -16 1477 -18 1196 -3 1433 -1 1499 11 80 15
193 48 231 68 11 6 22 12 25 12 3 1 25 11 50 24 134 70 283 203 369 330 51 74
118 214 138 286 43 153 42 142 40 1620 -1 776 -5 1419 -9 1431 -3 11 -14 52
-23 90 -21 85 -88 230 -143 311 -98 144 -235 263 -388 338 -125 61 -131 64
-279 102 -30 7 -2867 17 -2876 9z"/>
</g>
</svg>
